<?xml version="1.0" encoding="iso-8859-1"?>
<!-- Generator: Adobe Illustrator 19.0.0, SVG Export Plug-In . SVG Version: 6.00 Build 0)  -->
<svg version="1.1" id="Layer_1" xmlns="http://www.w3.org/2000/svg" xmlns:xlink="http://www.w3.org/1999/xlink" x="0px" y="0px"
	 viewBox="0 0 512.002 512.002" style="enable-background:new 0 0 512.002 512.002;" xml:space="preserve">
<circle style="fill:#263A7A;" cx="256" cy="256.001" r="256"/>
<path style="fill:#121149;" d="M510.273,226.279L404.13,120.135L106.277,369.618l142.267,142.267
	c2.477,0.071,4.961,0.115,7.458,0.115c141.384,0,256-114.616,256-256C512,245.945,511.4,236.031,510.273,226.279z"/>
<path style="fill:#FFFFFF;" d="M398.291,372.795H113.709c-5.673,0-10.274-4.599-10.274-10.274V255.932
	c0-5.673,4.599-10.274,10.274-10.274h284.582c5.673,0,10.274,4.599,10.274,10.274v106.591
	C408.566,368.196,403.966,372.795,398.291,372.795z"/>
<path style="fill:#DBDBDB;" d="M398.291,245.657H256.288v127.138h142.003c5.675,0,10.274-4.599,10.274-10.274V255.932
	C408.566,250.257,403.966,245.657,398.291,245.657z"/>
<path style="fill:#71E2EF;" d="M398.291,245.657H113.709c-5.673,0-10.274-4.599-10.274-10.274V128.794
	c0-5.673,4.599-10.274,10.274-10.274h284.582c5.673,0,10.274,4.599,10.274,10.274v106.591
	C408.566,241.058,403.966,245.657,398.291,245.657z"/>
<path style="fill:#5AD5DB;" d="M398.291,118.519H256.288v127.138h142.003c5.675,0,10.274-4.599,10.274-10.274V128.794
	C408.566,123.119,403.966,118.519,398.291,118.519z"/>
<circle style="fill:#366695;" cx="151.6" cy="341.972" r="20.034"/>
<circle style="fill:#FF5419;" cx="203.8" cy="341.972" r="20.034"/>
<circle style="fill:#38C6D9;" cx="256" cy="341.972" r="20.034"/>
<path style="fill:#386895;" d="M276.034,341.974c0-10.967-8.816-19.863-19.746-20.02v40.039
	C267.217,361.838,276.034,352.941,276.034,341.974z"/>
<circle style="fill:#DBA216;" cx="308.2" cy="341.972" r="20.034"/>
<g>
	<circle style="fill:#E03A00;" cx="360.4" cy="341.972" r="20.034"/>
	<circle style="fill:#E03A00;" cx="151.6" cy="276.481" r="20.034"/>
</g>
<circle style="fill:#38C6D9;" cx="203.8" cy="276.481" r="20.034"/>
<circle style="fill:#FFC61B;" cx="256" cy="276.481" r="20.034"/>
<path style="fill:#DBA216;" d="M276.034,276.479c0-10.967-8.816-19.865-19.746-20.02v40.039
	C267.217,296.342,276.034,287.447,276.034,276.479z"/>
<circle style="fill:#FF5419;" cx="308.2" cy="276.481" r="20.034"/>
<g>
	<circle style="fill:#366695;" cx="360.4" cy="276.481" r="20.034"/>
	<path style="fill:#366695;" d="M383.138,312.674H128.862c-1.903,0-3.448-1.545-3.448-3.448s1.545-3.448,3.448-3.448h254.276
		c1.903,0,3.448,1.545,3.448,3.448S385.043,312.674,383.138,312.674z"/>
</g>
<g>
</g>
<g>
</g>
<g>
</g>
<g>
</g>
<g>
</g>
<g>
</g>
<g>
</g>
<g>
</g>
<g>
</g>
<g>
</g>
<g>
</g>
<g>
</g>
<g>
</g>
<g>
</g>
<g>
</g>
</svg>
