<?xml version="1.0" encoding="iso-8859-1"?>
<!-- Generator: Adobe Illustrator 19.0.0, SVG Export Plug-In . SVG Version: 6.00 Build 0)  -->
<svg version="1.1" id="Layer_1" xmlns="http://www.w3.org/2000/svg" xmlns:xlink="http://www.w3.org/1999/xlink" x="0px" y="0px"
	 viewBox="0 0 512 512" style="enable-background:new 0 0 512 512;" xml:space="preserve">
<path style="fill:#F2EBD9;" d="M379.903,163.132v-54.468c0-25.529-20.769-46.298-46.298-46.298h-27.414
	c-2.758,0-5.331-1.392-6.839-3.701c-9.628-14.736-25.836-23.533-43.358-23.533c-17.522,0-33.731,8.797-43.359,23.533
	c-1.509,2.308-4.081,3.701-6.839,3.701h-27.414c-25.529,0-46.298,20.769-46.298,46.298v54.468c0,4.513-3.657,8.17-8.17,8.17H16.34
	v305.566H495.66V171.302H388.073C383.561,171.302,379.903,167.645,379.903,163.132z M132.085,410.962
	c0,2.171-0.865,4.254-2.402,5.787l-41.532,41.396c-1.595,1.589-3.681,2.384-5.768,2.384c-2.087,0-4.173-0.794-5.768-2.384
	l-41.532-41.396c-1.537-1.533-2.402-3.616-2.402-5.787V195.813c0-4.513,3.657-8.17,8.17-8.17h83.064c4.513,0,8.17,3.657,8.17,8.17
	V410.962z M178.383,78.706h43.157c3.698-15.596,17.742-27.235,34.453-27.235s30.755,11.639,34.453,27.235h43.158
	c16.518,0,29.957,13.439,29.957,29.957s-13.439,29.957-29.957,29.957H178.383c-16.518,0-29.957-13.439-29.957-29.957
	S161.865,78.706,178.383,78.706z M156.596,154.962h198.797c4.513,0,8.17,3.657,8.17,8.17s-3.657,8.17-8.17,8.17H156.596
	c-4.513,0-8.17-3.657-8.17-8.17S152.083,154.962,156.596,154.962z M247.83,410.962c0,2.171-0.865,4.254-2.402,5.787l-41.532,41.396
	c-1.595,1.589-3.681,2.384-5.768,2.384s-4.173-0.794-5.768-2.384l-41.532-41.396c-1.537-1.532-2.402-3.614-2.402-5.787V195.813
	c0-4.513,3.657-8.17,8.17-8.17h83.064c4.513,0,8.17,3.657,8.17,8.17V410.962z M363.574,410.962c0,2.171-0.865,4.254-2.402,5.787
	l-41.532,41.396c-1.595,1.589-3.681,2.384-5.768,2.384c-2.087,0-4.173-0.794-5.768-2.384l-41.532-41.396
	c-1.537-1.532-2.402-3.614-2.402-5.787V195.813c0-4.513,3.657-8.17,8.17-8.17h83.064c4.513,0,8.17,3.657,8.17,8.17V410.962z
	 M471.153,187.638c4.513,0,8.17,3.657,8.17,8.17v215.149c0,2.171-0.865,4.254-2.402,5.787L435.39,458.14
	c-1.595,1.589-3.681,2.384-5.768,2.384c-2.087,0-4.173-0.794-5.768-2.384l-41.532-41.396c-1.537-1.532-2.402-3.615-2.402-5.787
	V195.808c0-4.513,3.657-8.17,8.17-8.17H471.153z"/>
<path style="fill:#FF9D49;" d="M420.77,253h42.213v-49.021H396.26v57.187h16.34C412.602,256.655,416.259,253,420.77,253z"/>
<path style="fill:#FF6E1D;" d="M296.851,261.174c0-4.513,3.657-8.17,8.17-8.17h42.213v-49.021h-66.723v57.194
	C280.511,261.177,296.851,261.177,296.851,261.174z"/>
<path style="fill:#185F8D;" d="M65.362,261.174c0-4.513,3.657-8.17,8.17-8.17h42.213v-49.021H49.021v57.194
	C49.021,261.177,65.362,261.177,65.362,261.174z"/>
<path style="fill:#BD1515;" d="M181.106,261.174c0-4.513,3.657-8.17,8.17-8.17h42.213v-49.021h-66.723v57.194
	C164.766,261.177,181.106,261.177,181.106,261.174z"/>
<path style="fill:#6DA8D6;" d="M115.745,407.569V269.345H73.532c-4.512,0-8.169-3.656-8.17-8.168h-16.34v146.393l33.362,33.253
	L115.745,407.569z"/>
<path style="fill:#F2484B;" d="M231.489,407.569V269.345h-42.213c-4.512,0-8.169-3.656-8.17-8.168h-16.34v146.393l33.362,33.253
	L231.489,407.569z"/>
<path style="fill:#FF9D49;" d="M347.234,407.569V269.345h-42.213c-4.512,0-8.169-3.656-8.17-8.168h-16.34v146.393l33.362,33.253
	L347.234,407.569z"/>
<path style="fill:#FFCC75;" d="M462.983,407.565V269.34H420.77c-4.513,0-8.17-3.657-8.17-8.17c0-0.004-16.34-0.004-16.34-0.004
	v146.399l33.362,33.253L462.983,407.565z"/>
<g>
	<path style="fill:#082947;" d="M379.919,195.808v215.149c0,2.171,0.865,4.254,2.402,5.787l41.532,41.396
		c1.595,1.589,3.681,2.384,5.768,2.384c2.087,0,4.173-0.794,5.768-2.384l41.532-41.396c1.537-1.532,2.402-3.615,2.402-5.787V195.808
		c0-4.513-3.657-8.17-8.17-8.17h-83.064C383.576,187.638,379.919,191.296,379.919,195.808z M396.26,203.979h66.723V253H420.77
		c-4.511,0-8.168,3.655-8.17,8.166c0,4.517,3.657,8.175,8.17,8.175h42.213v138.225l-33.362,33.253l-33.362-33.253V203.979z"/>
	<path style="fill:#082947;" d="M123.915,187.643H40.851c-4.513,0-8.17,3.657-8.17,8.17v215.149c0,2.171,0.865,4.254,2.402,5.787
		l41.532,41.396c1.595,1.589,3.681,2.384,5.768,2.384c2.087,0,4.173-0.794,5.768-2.384l41.532-41.396
		c1.537-1.532,2.402-3.614,2.402-5.787V195.813C132.085,191.3,128.428,187.643,123.915,187.643z M49.021,203.983h66.723v49.021
		H73.532c-4.513,0-8.17,3.657-8.17,8.17c0.001,4.514,3.658,8.17,8.17,8.17h42.213v138.225l-33.362,33.253l-33.362-33.253V203.983z"
		/>
	<path style="fill:#082947;" d="M503.83,154.962H396.243v-46.298c0-34.539-28.099-62.638-62.638-62.638h-23.169
		c-12.86-17.135-32.892-27.234-54.443-27.234s-41.584,10.099-54.444,27.234h-23.166c-34.539,0-62.638,28.099-62.638,62.638v46.298
		H8.17c-4.513,0-8.17,3.657-8.17,8.17v321.906c0,4.513,3.657,8.17,8.17,8.17h495.66c4.513,0,8.17-3.657,8.17-8.17V163.132
		C512,158.619,508.343,154.962,503.83,154.962z M495.66,476.868H16.34V171.302h107.574c4.513,0,8.17-3.657,8.17-8.17v-54.468
		c0-25.529,20.769-46.298,46.298-46.298h27.414c2.758,0,5.331-1.392,6.839-3.701c9.628-14.736,25.836-23.533,43.359-23.533
		c17.521,0,33.73,8.797,43.358,23.533c1.509,2.308,4.081,3.701,6.839,3.701h27.414c25.529,0,46.298,20.769,46.298,46.298v54.468
		c0,4.513,3.657,8.17,8.17,8.17H495.66V476.868z"/>
	<path style="fill:#082947;" d="M178.383,138.621h155.222c16.518,0,29.957-13.439,29.957-29.957s-13.439-29.957-29.957-29.957
		h-43.158c-3.698-15.596-17.742-27.235-34.453-27.235S225.239,63.11,221.54,78.706h-43.157c-16.518,0-29.957,13.439-29.957,29.957
		S161.865,138.621,178.383,138.621z M178.383,95.047h50.376c4.513,0,8.17-3.657,8.17-8.17c0-10.512,8.553-19.065,19.064-19.065
		s19.064,8.553,19.064,19.065c0,4.513,3.657,8.17,8.17,8.17h50.378c7.509,0,13.617,6.108,13.617,13.617s-6.108,13.617-13.617,13.617
		H178.383c-7.509,0-13.617-6.108-13.617-13.617S170.874,95.047,178.383,95.047z"/>
	<path style="fill:#082947;" d="M355.404,187.643H272.34c-4.513,0-8.17,3.657-8.17,8.17v215.149c0,2.171,0.865,4.254,2.402,5.787
		l41.532,41.396c1.595,1.589,3.681,2.384,5.768,2.384c2.087,0,4.173-0.794,5.768-2.384l41.532-41.396
		c1.537-1.532,2.402-3.614,2.402-5.787V195.813C363.574,191.3,359.917,187.643,355.404,187.643z M280.511,203.983h66.723v49.021
		h-42.213c-4.513,0-8.17,3.657-8.17,8.17c0.001,4.514,3.658,8.17,8.17,8.17h42.213v138.225l-33.362,33.253l-33.362-33.253V203.983z"
		/>
	<path style="fill:#082947;" d="M239.66,187.643h-83.064c-4.513,0-8.17,3.657-8.17,8.17v215.149c0,2.171,0.865,4.254,2.402,5.787
		l41.532,41.396c1.595,1.589,3.681,2.384,5.768,2.384s4.173-0.794,5.768-2.384l41.532-41.396c1.537-1.532,2.402-3.614,2.402-5.787
		V195.813C247.83,191.3,244.173,187.643,239.66,187.643z M164.766,203.983h66.723v49.021h-42.213c-4.513,0-8.17,3.657-8.17,8.17
		c0.001,4.514,3.658,8.17,8.17,8.17h42.213v138.225l-33.362,33.253l-33.362-33.253V203.983z"/>
	<path style="fill:#082947;" d="M156.596,171.302h198.797c4.513,0,8.17-3.657,8.17-8.17s-3.657-8.17-8.17-8.17H156.596
		c-4.513,0-8.17,3.657-8.17,8.17S152.083,171.302,156.596,171.302z"/>
</g>
<g>
</g>
<g>
</g>
<g>
</g>
<g>
</g>
<g>
</g>
<g>
</g>
<g>
</g>
<g>
</g>
<g>
</g>
<g>
</g>
<g>
</g>
<g>
</g>
<g>
</g>
<g>
</g>
<g>
</g>
</svg>
